# xmcd
#
# Track frame offsets:
#	150
#	43235
#	91727
#	106142
#	136875
#	174612
#	229110
#	248560
#	261115
#	276195
#	292047
#
# Disc length: 4089 seconds
#
# Revision: 1
# Processed by: cddbd v1.5.1PL0 Copyright (c) Steve Scherf et al.
# Submitted via: CDex 1.50Beta5
#
DISCID=970ff70b
DTITLE=羽田健太郎 - 題名のない音楽会21 20世紀の名曲ベスト30 Disc 2
DYEAR=2001
DGENRE=Soundtrack
TTITLE0=東京交響楽団/「弦楽器、打楽器とチェレスタのための音楽」より第1楽章“アンダンテ・トライクィロ”
TTITLE1=東京交響楽団/「交響曲第5番ニ短調」より第4楽章“アレグロ・ノン・トロッポ”
TTITLE2=東京フィルハーモニー交響楽団/「風と共に去りぬ」より“タラのテーマ”
TTITLE3=藤井一興/「トゥランガリラ交響曲」より第5楽章“星の血の歓喜”
TTITLE4=東京フィルハーモニー交響楽団/弦楽のためのレクイエム
TTITLE5=東京混声合唱団/「涅槃交響曲」より第5楽章“カンパノロジーIII”第6楽章“フィナーレ”
TTITLE6=マリーン/スターダスト
TTITLE7=マリーン/サマータイム
TTITLE8=北村英治/ビギン・ザ・ビギン
TTITLE9=前田憲男とウィンドブレイカーズ/A列車で行こう
TTITLE10=マリーン/センチメンタル・ジャーニー
EXTD=
EXTT0=
EXTT1=
EXTT2=
EXTT3=
EXTT4=
EXTT5=
EXTT6=
EXTT7=
EXTT8=
EXTT9=
EXTT10=
PLAYORDER=
